<svg width="140" height="40" viewBox="0 0 140 40" fill="none" xmlns="http://www.w3.org/2000/svg">
<g clip-path="url(#clip0_490_110)">
<path fill-rule="evenodd" clip-rule="evenodd" d="M24.4652 28.9751V38.1147L1.97528 54.0178L14.8785 28.5326L9.03413 32.7929L21.1025 14.4587L16.2595 18.1292L24.4652 1.98242L46.2259 54.0178L24.4652 41.3894H32.4877L24.4652 21.4195L19.2808 32.4125L24.4652 28.9751ZM82.4648 41.7684C80.2912 41.7684 78.6277 41.1143 77.4739 39.806C76.3306 38.4875 75.759 36.587 75.759 34.1045V21.1873C75.759 18.8594 76.3255 17.0928 77.4586 15.8876C78.6019 14.6824 80.2707 14.0798 82.4648 14.0798C84.6589 14.0798 86.3224 14.6824 87.4555 15.8876C88.5989 17.0928 89.1706 18.8594 89.1706 21.1873V34.1045C89.1706 36.587 88.5937 38.4875 87.4401 39.806C86.2966 41.1143 84.6382 41.7684 82.4648 41.7684ZM82.5111 36.7621C83.3353 36.7621 83.7473 35.9638 83.7473 34.3673V21.0946C83.7473 19.7555 83.3455 19.086 82.5421 19.086C81.6355 19.086 81.1824 19.771 81.1824 21.141V34.398C81.1824 35.2429 81.2854 35.8505 81.4913 36.2213C81.6974 36.5819 82.0373 36.7621 82.5111 36.7621ZM37.2854 28.6147L42.7862 41.5211V29.1138C43.5071 29.1138 44.0273 29.2117 44.3466 29.4073C44.6763 29.5927 44.8412 30.0822 44.8412 30.8752V41.5211H50.2027V31.2306C50.2027 30.1594 50.0275 29.2889 49.6774 28.6194C49.3373 27.9395 48.7399 27.5119 47.885 27.337C48.9253 26.9969 49.6309 26.3842 50.0019 25.4981C50.383 24.6123 50.5735 23.4278 50.5735 21.9445C50.5735 20.4096 50.4499 19.0757 50.2027 17.9426C49.9659 16.7992 49.492 15.9133 48.7811 15.285C48.0704 14.6463 47.0197 14.327 45.6291 14.327H37.2854V28.6147ZM44.1303 24.4013H42.8169V19.3641H44.084C44.5372 19.3641 44.8463 19.5289 45.011 19.8585C45.1759 20.1882 45.2583 20.8835 45.2583 21.9445C45.2583 23.5822 44.8824 24.4013 44.1303 24.4013ZM52.3658 14.327V41.5211H57.2793V21.929L60.5858 41.5211H65.4685L68.5896 21.929V41.5211H73.5649V14.327H65.2059L62.9345 30.9061L60.6477 14.327H52.3658ZM91.3647 14.327V41.5211H96.8653V29.1138C97.5864 29.1138 98.1066 29.2117 98.4258 29.4073C98.7554 29.5927 98.9203 30.0822 98.9203 30.8752V41.5211H104.282V31.2306C104.282 30.1594 104.107 29.2889 103.757 28.6194C103.417 27.9395 102.819 27.5119 101.964 27.337C103.004 26.9969 103.71 26.3842 104.081 25.4981C104.462 24.6123 104.653 23.4278 104.653 21.9445C104.653 20.4096 104.529 19.0757 104.282 17.9426C104.045 16.7992 103.571 15.9133 102.86 15.285C102.15 14.6463 101.099 14.327 99.7082 14.327H91.3647ZM98.2096 24.4013H96.8962V19.3641H98.1631C98.6165 19.3641 98.9254 19.5289 99.0903 19.8585C99.2551 20.1882 99.3374 20.8835 99.3374 21.9445C99.3374 23.5822 98.9615 24.4013 98.2096 24.4013ZM109.736 41.5211V32.5749L105.394 14.327H110.787L112.301 23.5359L113.815 14.327H119.192L114.866 32.5749V41.5211H109.736ZM66.2531 46.4379H65.6758C65.6418 46.2717 65.582 46.1259 65.4966 46.0003C65.4128 45.8745 65.3104 45.769 65.1893 45.6836C65.0698 45.5967 64.9371 45.5315 64.7912 45.4881C64.6454 45.4447 64.4931 45.423 64.335 45.423C64.0463 45.423 63.7847 45.4959 63.5504 45.6418C63.3176 45.7876 63.1322 46.0025 62.994 46.2865C62.8575 46.5706 62.7891 46.9191 62.7891 47.3319C62.7891 47.7447 62.8575 48.0932 62.994 48.3771C63.1322 48.661 63.3176 48.8762 63.5504 49.022C63.7847 49.1679 64.0463 49.2408 64.335 49.2408C64.4931 49.2408 64.6454 49.2191 64.7912 49.1757C64.9371 49.1322 65.0698 49.0677 65.1893 48.9825C65.3104 48.8954 65.4128 48.7891 65.4966 48.6635C65.582 48.5363 65.6418 48.3902 65.6758 48.2257H66.2531C66.2097 48.4695 66.1306 48.6875 66.0157 48.88C65.901 49.0724 65.7582 49.2361 65.5873 49.3711C65.4167 49.5047 65.2249 49.6063 65.0125 49.6761C64.8013 49.746 64.5755 49.7808 64.335 49.7808C63.9283 49.7808 63.5668 49.6815 63.25 49.483C62.9335 49.2842 62.6844 49.0017 62.5029 48.6354C62.3212 48.2691 62.2304 47.8346 62.2304 47.3319C62.2304 46.8289 62.3212 46.3944 62.5029 46.0281C62.6844 45.6618 62.9335 45.3793 63.25 45.1808C63.5668 44.9821 63.9283 44.8827 64.335 44.8827C64.5755 44.8827 64.8013 44.9178 65.0125 44.9876C65.2249 45.0573 65.4167 45.1597 65.5873 45.2949C65.7582 45.4283 65.901 45.5914 66.0157 45.7837C66.1306 45.9747 66.2097 46.1926 66.2531 46.4379ZM47.6226 44.9479V49.7157H49.3453C49.721 49.7157 50.0259 49.6598 50.2602 49.5481C50.4946 49.4363 50.6661 49.2851 50.7749 49.0941C50.8834 48.9032 50.9377 48.6883 50.9377 48.4492C50.9377 48.1978 50.8881 47.9852 50.7888 47.8115C50.6894 47.6375 50.5661 47.5042 50.4186 47.411C50.2711 47.318 50.1244 47.2667 49.9785 47.2573V47.2108C50.1152 47.1735 50.2416 47.1162 50.3582 47.0385C50.476 46.9609 50.5708 46.8554 50.6421 46.7218C50.715 46.5884 50.7515 46.4192 50.7515 46.2144C50.7515 45.9816 50.6988 45.7698 50.5931 45.5789C50.4876 45.3865 50.327 45.2335 50.1113 45.1202C49.8956 45.0055 49.6217 44.9479 49.2896 44.9479H47.6226ZM49.3453 49.2035H48.2001V47.546H49.3734C49.5813 47.546 49.7614 47.588 49.9134 47.6718C50.0656 47.7539 50.1828 47.8641 50.2649 48.0022C50.3473 48.1388 50.3883 48.2878 50.3883 48.4492C50.3883 48.6588 50.3084 48.8372 50.1486 48.9847C49.9902 49.1306 49.7225 49.2035 49.3453 49.2035ZM49.271 47.0432H48.2001V45.46H49.2896C49.6061 45.46 49.8374 45.5338 49.9833 45.6813C50.1291 45.8272 50.2021 46.0048 50.2021 46.2144C50.2021 46.3819 50.1603 46.5278 50.0765 46.6522C49.9941 46.7763 49.8825 46.8724 49.7411 46.9408C49.6014 47.009 49.4447 47.0432 49.271 47.0432ZM53.5801 44.9479H52.919L54.6417 47.7508V49.7157H55.219V47.7508L56.9417 44.9479H56.2806L54.9582 47.1735H54.9025L53.5801 44.9479ZM68.6283 49.7157H69.2058V44.9479H68.6283V49.7157ZM74.4129 46.14C74.385 45.904 74.2717 45.7208 74.073 45.5905C73.8745 45.46 73.6307 45.3949 73.342 45.3949C73.131 45.3949 72.9462 45.4291 72.7881 45.4973C72.6312 45.5658 72.5087 45.6596 72.4202 45.779C72.3333 45.8987 72.2899 46.0343 72.2899 46.1865C72.2899 46.3137 72.32 46.4231 72.3806 46.5147C72.4427 46.6046 72.5218 46.68 72.618 46.7404C72.7143 46.7994 72.8151 46.8484 72.9206 46.8871C73.0261 46.9244 73.1232 46.9547 73.2117 46.9779L73.6958 47.1084C73.82 47.141 73.9583 47.186 74.1103 47.2434C74.2639 47.3008 74.4106 47.3792 74.5503 47.4786C74.6915 47.5763 74.8078 47.7021 74.8994 47.8557C74.991 48.0094 75.0369 48.1978 75.0369 48.4214C75.0369 48.6789 74.9693 48.9118 74.8343 49.1197C74.7009 49.3277 74.5052 49.493 74.2477 49.6155C73.9917 49.7382 73.6805 49.7995 73.3142 49.7995C72.9727 49.7995 72.677 49.7444 72.4271 49.6341C72.1788 49.5239 71.9834 49.3703 71.8406 49.1732C71.6992 48.9761 71.6193 48.7473 71.6007 48.4865H72.1966C72.2122 48.6666 72.2726 48.8155 72.3783 48.9335C72.4853 49.0499 72.6203 49.1367 72.7834 49.1943C72.9479 49.25 73.1247 49.2781 73.3142 49.2781C73.5344 49.2781 73.7323 49.2422 73.9077 49.171C74.0832 49.098 74.2221 48.9972 74.3246 48.8684C74.427 48.7379 74.4782 48.5859 74.4782 48.4119C74.4782 48.2538 74.434 48.1249 74.3455 48.0256C74.257 47.9262 74.1406 47.8455 73.9962 47.7834C73.8519 47.7213 73.6958 47.667 73.5283 47.6205L72.9417 47.453C72.5691 47.3458 72.2743 47.193 72.0569 46.9943C71.8398 46.7956 71.731 46.5356 71.731 46.2144C71.731 45.9474 71.8033 45.7147 71.9475 45.516C72.0934 45.3158 72.289 45.1605 72.5343 45.0503C72.7809 44.9387 73.0565 44.8827 73.3607 44.8827C73.668 44.8827 73.9411 44.9379 74.1801 45.0481C74.4192 45.1566 74.6085 45.3058 74.7482 45.4951C74.8894 45.6844 74.9639 45.8993 74.9717 46.14H74.4129ZM81.1787 48.6354C81.3604 48.2691 81.4512 47.8346 81.4512 47.3319C81.4512 46.8289 81.3604 46.3944 81.1787 46.0281C80.9972 45.6618 80.7481 45.3793 80.4314 45.1808C80.1148 44.9821 79.7532 44.8827 79.3466 44.8827C78.9399 44.8827 78.5784 44.9821 78.2618 45.1808C77.9451 45.3793 77.696 45.6618 77.5145 46.0281C77.3328 46.3944 77.242 46.8289 77.242 47.3319C77.242 47.8346 77.3328 48.2691 77.5145 48.6354C77.696 49.0017 77.9451 49.2842 78.2618 49.483C78.5784 49.6815 78.9399 49.7808 79.3466 49.7808C79.7532 49.7808 80.1148 49.6815 80.4314 49.483C80.7481 49.2842 80.9972 49.0017 81.1787 48.6354ZM80.6852 46.2865C80.8232 46.5706 80.8923 46.9191 80.8923 47.3319C80.8923 47.7447 80.8232 48.0932 80.6852 48.3771C80.5485 48.661 80.3631 48.8762 80.1288 49.022C79.896 49.1679 79.6352 49.2408 79.3466 49.2408C79.0579 49.2408 78.7963 49.1679 78.562 49.022C78.3292 48.8762 78.1438 48.661 78.0058 48.3771C77.8691 48.0932 77.8009 47.7447 77.8009 47.3319C77.8009 46.9191 77.8691 46.5706 78.0058 46.2865C78.1438 46.0025 78.3292 45.7876 78.562 45.6418C78.7963 45.4959 79.0579 45.423 79.3466 45.423C79.6352 45.423 79.896 45.4959 80.1288 45.6418C80.3631 45.7876 80.5485 46.0025 80.6852 46.2865ZM83.4049 45.46V44.9479H86.9806V45.46H85.4814V49.7157H84.9041V45.46H83.4049ZM90.9251 44.9479H89.314V49.7157H89.8913V47.8533H90.9343C90.9757 47.8533 91.016 47.8524 91.0558 47.851L92.0611 49.7157H92.7316L91.6544 47.7498C91.722 47.7267 91.7853 47.7 91.8445 47.6693C92.0819 47.5452 92.2581 47.3745 92.3731 47.1571C92.4878 46.94 92.5453 46.6909 92.5453 46.41C92.5453 46.1291 92.4878 45.8784 92.3731 45.6579C92.2581 45.4377 92.0811 45.2646 91.8423 45.1388C91.6032 45.0116 91.2975 44.9479 90.9251 44.9479ZM89.8913 47.3319H90.9157C91.1701 47.3319 91.375 47.2946 91.5303 47.22C91.687 47.1457 91.8003 47.04 91.8701 46.9035C91.9416 46.7654 91.9773 46.6009 91.9773 46.41C91.9773 46.2191 91.9416 46.0523 91.8701 45.9095C91.7988 45.7667 91.6847 45.6565 91.528 45.5789C91.3713 45.4998 91.164 45.46 90.9064 45.46H89.8913V47.3319ZM98.9723 47.3319C98.9723 47.8346 98.8816 48.2691 98.6999 48.6354C98.5184 49.0017 98.2692 49.2842 97.9527 49.483C97.636 49.6815 97.2744 49.7808 96.8678 49.7808C96.4611 49.7808 96.0995 49.6815 95.783 49.483C95.4663 49.2842 95.2172 49.0017 95.0357 48.6354C94.8542 48.2691 94.7634 47.8346 94.7634 47.3319C94.7634 46.8289 94.8542 46.3944 95.0357 46.0281C95.2172 45.6618 95.4663 45.3793 95.783 45.1808C96.0995 44.9821 96.4611 44.8827 96.8678 44.8827C97.2744 44.8827 97.636 44.9821 97.9527 45.1808C98.2692 45.3793 98.5184 45.6618 98.6999 46.0281C98.8816 46.3944 98.9723 46.8289 98.9723 47.3319ZM98.4137 47.3319C98.4137 46.9191 98.3446 46.5706 98.2064 46.2865C98.0699 46.0025 97.8843 45.7876 97.6499 45.6418C97.4172 45.4959 97.1564 45.423 96.8678 45.423C96.5791 45.423 96.3177 45.4959 96.0833 45.6418C95.8504 45.7876 95.665 46.0025 95.5269 46.2865C95.3903 46.5706 95.3221 46.9191 95.3221 47.3319C95.3221 47.7447 95.3903 48.0932 95.5269 48.3771C95.665 48.661 95.8504 48.8762 96.0833 49.022C96.3177 49.1679 96.5791 49.2408 96.8678 49.2408C97.1564 49.2408 97.4172 49.1679 97.6499 49.022C97.8843 48.8762 98.0699 48.661 98.2064 48.3771C98.3446 48.0932 98.4137 47.7447 98.4137 47.3319ZM104.607 49.7157H105.166V44.9479H104.598V48.7008H104.551L101.944 44.9479H101.385V49.7157H101.963V45.9722H102.009L104.607 49.7157ZM108.341 49.7157H107.763V44.9479H108.341V49.7157ZM112.449 46.9314L111.22 44.9479H110.54L112.077 47.3319L110.54 49.7157H111.22L112.449 47.7695H112.487L113.716 49.7157H114.396L112.896 47.3319L114.396 44.9479H113.716L112.487 46.9314H112.449Z" fill="#0582CA"/>
</g>
<defs>
<clipPath id="clip0_490_110">
<rect width="140" height="40" fill="white"/>
</clipPath>
</defs>
</svg>
