<svg  viewBox="0 0 195 87" fill="none" xmlns="http://www.w3.org/2000/svg">
<g id="#" clip-path="url(#clip0_0_1)">
<path id="Vector" fill-rule="evenodd" clip-rule="evenodd" d="M37.3975 44.8849V60.0827L0 86.5273L21.4563 44.149L11.7378 51.2334L31.8057 20.7463L23.7525 26.8498L37.3975 0L73.5823 86.5273L37.3975 65.5281H50.7377L37.3975 32.3211L28.7766 50.6008L37.3975 44.8849ZM133.842 66.1583C130.228 66.1583 127.462 65.0706 125.543 62.8952C123.642 60.7027 122.692 57.5424 122.692 53.4143V31.935C122.692 28.0639 123.634 25.1263 125.518 23.1223C127.419 21.1182 130.194 20.1162 133.842 20.1162C137.491 20.1162 140.257 21.1182 142.141 23.1223C144.042 25.1263 144.993 28.0639 144.993 31.935V53.4143C144.993 57.5424 144.034 60.7027 142.116 62.8952C140.214 65.0706 137.457 66.1583 133.842 66.1583ZM133.919 57.8337C135.29 57.8337 135.975 56.5061 135.975 53.8514V31.7808C135.975 29.5541 135.307 28.4407 133.971 28.4407C132.463 28.4407 131.71 29.5798 131.71 31.8579V53.9024C131.71 55.3073 131.881 56.3177 132.224 56.9343C132.566 57.5339 133.132 57.8337 133.919 57.8337ZM58.7156 44.2856L67.8626 65.7472V45.1155C69.0614 45.1155 69.9264 45.2783 70.4574 45.6037C71.0056 45.912 71.2798 46.7258 71.2798 48.0445V65.7472H80.1952V48.6355C80.1952 46.8542 79.9039 45.4068 79.3217 44.2935C78.7562 43.1628 77.7629 42.4519 76.3413 42.161C78.0712 41.5955 79.2444 40.5766 79.8613 39.1032C80.495 37.6302 80.8118 35.6605 80.8118 33.194C80.8118 30.6418 80.6063 28.4236 80.1952 26.5394C79.8014 24.6381 79.0134 23.1651 77.8313 22.1202C76.6496 21.0582 74.9024 20.5273 72.59 20.5273H58.7156V44.2856ZM70.0977 37.2793H67.9137V28.9032H70.0207C70.7743 28.9032 71.2883 29.1773 71.5622 29.7254C71.8364 30.2735 71.9734 31.4297 71.9734 33.194C71.9734 35.9174 71.3483 37.2793 70.0977 37.2793ZM83.7922 20.5273V65.7472H91.9625V33.1683L97.4608 65.7472H105.58L110.77 33.1683V65.7472H119.043V20.5273H105.143L101.366 48.0959L97.5637 20.5273H83.7922ZM148.642 20.5273V65.7472H157.788V45.1155C158.988 45.1155 159.852 45.2783 160.383 45.6037C160.931 45.912 161.206 46.7258 161.206 48.0445V65.7472H170.121V48.6355C170.121 46.8542 169.83 45.4068 169.247 44.2935C168.682 43.1628 167.689 42.4519 166.267 42.161C167.997 41.5955 169.17 40.5766 169.787 39.1032C170.421 37.6302 170.738 35.6605 170.738 33.194C170.738 30.6418 170.532 28.4236 170.121 26.5394C169.727 24.6381 168.939 23.1651 167.757 22.1202C166.575 21.0582 164.828 20.5273 162.516 20.5273H148.642ZM160.024 37.2793H157.84V28.9032H159.946C160.7 28.9032 161.214 29.1773 161.488 29.7254C161.762 30.2735 161.899 31.4297 161.899 33.194C161.899 35.9174 161.274 37.2793 160.024 37.2793ZM179.191 65.7472V50.8709L171.971 20.5273H180.938L183.456 35.8404L185.974 20.5273H194.915L187.721 50.8709V65.7472H179.191ZM106.885 73.923H105.925C105.868 73.6467 105.769 73.4041 105.627 73.1953C105.487 72.9862 105.317 72.8107 105.116 72.6687C104.917 72.5242 104.696 72.4159 104.454 72.3437C104.211 72.2715 103.958 72.2353 103.695 72.2353C103.215 72.2353 102.78 72.3566 102.39 72.5992C102.003 72.8417 101.695 73.1991 101.465 73.6712C101.238 74.1437 101.125 74.7232 101.125 75.4096C101.125 76.096 101.238 76.6755 101.465 77.1476C101.695 77.6198 102.003 77.9775 102.39 78.22C102.78 78.4626 103.215 78.5839 103.695 78.5839C103.958 78.5839 104.211 78.5478 104.454 78.4755C104.696 78.4033 104.917 78.296 105.116 78.1543C105.317 78.0095 105.487 77.8327 105.627 77.6239C105.769 77.4123 105.868 77.1694 105.925 76.8959H106.885C106.813 77.3013 106.681 77.6637 106.49 77.984C106.299 78.3038 106.062 78.576 105.778 78.8005C105.494 79.0226 105.175 79.1916 104.822 79.3078C104.471 79.4239 104.095 79.4818 103.695 79.4818C103.019 79.4818 102.418 79.3166 101.891 78.9865C101.365 78.6561 100.95 78.1863 100.649 77.5772C100.347 76.9681 100.196 76.2456 100.196 75.4096C100.196 74.5733 100.347 73.8507 100.649 73.2417C100.95 72.6326 101.365 72.1628 101.891 71.8327C102.418 71.5022 103.019 71.337 103.695 71.337C104.095 71.337 104.471 71.3953 104.822 71.5114C105.175 71.6273 105.494 71.7976 105.778 72.0224C106.062 72.2442 106.299 72.5154 106.49 72.8352C106.681 73.1527 106.813 73.5152 106.885 73.923ZM75.9049 71.4454V79.3735H78.7695C79.3943 79.3735 79.9012 79.2805 80.2909 79.0949C80.6806 78.9089 80.9657 78.6574 81.1466 78.34C81.3272 78.0225 81.4175 77.6651 81.4175 77.2676C81.4175 76.8496 81.335 76.496 81.1698 76.2071C81.0046 75.9179 80.7995 75.6961 80.5542 75.5411C80.309 75.3864 80.065 75.3013 79.8225 75.2856V75.2083C80.0497 75.1463 80.2599 75.0509 80.4537 74.9218C80.6496 74.7927 80.8073 74.6172 80.9259 74.3951C81.0472 74.1734 81.1078 73.892 81.1078 73.5513C81.1078 73.1643 81.0202 72.8121 80.8445 72.4946C80.669 72.1747 80.402 71.9202 80.0432 71.7318C79.6845 71.5411 79.2291 71.4454 78.6769 71.4454H75.9049ZM78.7695 78.5219H76.8652V75.7656H78.8162C79.162 75.7656 79.4614 75.8354 79.7142 75.9748C79.9673 76.1114 80.1621 76.2946 80.2987 76.5242C80.4357 76.7515 80.5038 76.9991 80.5038 77.2676C80.5038 77.616 80.371 77.9128 80.1052 78.158C79.8419 78.4006 79.3967 78.5219 78.7695 78.5219ZM78.6459 74.9296H76.8652V72.297H78.6769C79.2032 72.297 79.5878 72.4196 79.8303 72.6649C80.0729 72.9075 80.1941 73.2028 80.1941 73.5513C80.1941 73.83 80.1247 74.0725 79.9853 74.2793C79.8484 74.4857 79.6627 74.6455 79.4277 74.7593C79.1953 74.8727 78.9347 74.9296 78.6459 74.9296ZM85.8113 71.4454H84.712L87.5766 76.1063V79.3735H88.5365V76.1063L91.4011 71.4454H90.3018L88.1029 75.1463H88.0102L85.8113 71.4454ZM110.834 79.3735H111.795V71.4454H110.834V79.3735ZM120.453 73.4277C120.407 73.0352 120.218 72.7307 119.888 72.514C119.558 72.297 119.153 72.1887 118.673 72.1887C118.322 72.1887 118.014 72.2456 117.751 72.359C117.49 72.4728 117.287 72.6288 117.14 72.8274C116.995 73.0264 116.923 73.2519 116.923 73.505C116.923 73.7165 116.973 73.8984 117.074 74.0507C117.177 74.2003 117.309 74.3256 117.469 74.4261C117.629 74.5242 117.796 74.6056 117.972 74.67C118.147 74.732 118.309 74.7825 118.456 74.8209L119.261 75.0379C119.467 75.0921 119.697 75.1671 119.95 75.2624C120.206 75.3578 120.449 75.4883 120.682 75.6535C120.917 75.816 121.11 76.0252 121.262 76.2807C121.415 76.5362 121.491 76.8496 121.491 77.2212C121.491 77.6494 121.378 78.0368 121.154 78.3825C120.932 78.7283 120.607 79.0032 120.179 79.2069C119.753 79.411 119.235 79.5128 118.626 79.5128C118.058 79.5128 117.567 79.4212 117.151 79.2379C116.738 79.0547 116.413 78.7992 116.176 78.4714C115.941 78.1437 115.808 77.7632 115.777 77.3296H116.768C116.794 77.629 116.894 77.8767 117.07 78.0729C117.248 78.2664 117.472 78.4108 117.744 78.5065C118.017 78.5992 118.311 78.6459 118.626 78.6459C118.992 78.6459 119.322 78.5862 119.613 78.4677C119.905 78.3464 120.136 78.1788 120.306 77.9645C120.477 77.7475 120.562 77.4948 120.562 77.2056C120.562 76.9426 120.488 76.7283 120.341 76.5631C120.194 76.3979 120 76.2636 119.76 76.1604C119.52 76.0572 119.261 75.9669 118.982 75.8896L118.007 75.6109C117.387 75.4328 116.897 75.1786 116.536 74.8482C116.175 74.5178 115.994 74.0855 115.994 73.5513C115.994 73.1074 116.114 72.7204 116.354 72.39C116.596 72.0572 116.922 71.799 117.329 71.6157C117.74 71.43 118.198 71.337 118.704 71.337C119.215 71.337 119.669 71.4287 120.066 71.6119C120.464 71.7925 120.779 72.0405 121.011 72.3553C121.246 72.67 121.37 73.0274 121.383 73.4277H120.453ZM131.704 77.5772C132.006 76.9681 132.157 76.2456 132.157 75.4096C132.157 74.5733 132.006 73.8507 131.704 73.2417C131.402 72.6326 130.988 72.1628 130.461 71.8327C129.935 71.5022 129.334 71.337 128.657 71.337C127.981 71.337 127.38 71.5022 126.854 71.8327C126.327 72.1628 125.913 72.6326 125.611 73.2417C125.309 73.8507 125.158 74.5733 125.158 75.4096C125.158 76.2456 125.309 76.9681 125.611 77.5772C125.913 78.1863 126.327 78.6561 126.854 78.9865C127.38 79.3166 127.981 79.4818 128.657 79.4818C129.334 79.4818 129.935 79.3166 130.461 78.9865C130.988 78.6561 131.402 78.1863 131.704 77.5772ZM130.883 73.6712C131.113 74.1437 131.228 74.7232 131.228 75.4096C131.228 76.096 131.113 76.6755 130.883 77.1476C130.656 77.6198 130.348 77.9775 129.958 78.22C129.571 78.4626 129.137 78.5839 128.657 78.5839C128.177 78.5839 127.742 78.4626 127.353 78.22C126.966 77.9775 126.657 77.6198 126.428 77.1476C126.2 76.6755 126.087 76.096 126.087 75.4096C126.087 74.7232 126.2 74.1437 126.428 73.6712C126.657 73.1991 126.966 72.8417 127.353 72.5992C127.742 72.3566 128.177 72.2353 128.657 72.2353C129.137 72.2353 129.571 72.3566 129.958 72.5992C130.348 72.8417 130.656 73.1991 130.883 73.6712ZM135.406 72.297V71.4454H141.352V72.297H138.859V79.3735H137.899V72.297H135.406ZM147.911 71.4454H145.232V79.3735H146.192V76.2766H147.926C147.995 76.2766 148.062 76.2752 148.128 76.2728L149.8 79.3735H150.915L149.123 76.1046C149.236 76.0661 149.341 76.0218 149.44 75.9707C149.834 75.7642 150.127 75.4805 150.318 75.119C150.509 74.7579 150.605 74.3437 150.605 73.8766C150.605 73.4096 150.509 72.9926 150.318 72.6261C150.127 72.2599 149.833 71.972 149.436 71.7629C149.038 71.5513 148.53 71.4454 147.911 71.4454ZM146.192 75.4096H147.895C148.318 75.4096 148.659 75.3476 148.917 75.2236C149.178 75.0999 149.366 74.9242 149.482 74.6973C149.601 74.4677 149.66 74.1941 149.66 73.8766C149.66 73.5591 149.601 73.2819 149.482 73.0444C149.364 72.807 149.174 72.6237 148.913 72.4946C148.653 72.3631 148.308 72.297 147.88 72.297H146.192V75.4096ZM161.292 75.4096C161.292 76.2456 161.141 76.9681 160.839 77.5772C160.537 78.1863 160.123 78.6561 159.597 78.9865C159.07 79.3166 158.469 79.4818 157.792 79.4818C157.116 79.4818 156.515 79.3166 155.989 78.9865C155.462 78.6561 155.048 78.1863 154.746 77.5772C154.444 76.9681 154.293 76.2456 154.293 75.4096C154.293 74.5733 154.444 73.8507 154.746 73.2417C155.048 72.6326 155.462 72.1628 155.989 71.8327C156.515 71.5022 157.116 71.337 157.792 71.337C158.469 71.337 159.07 71.5022 159.597 71.8327C160.123 72.1628 160.537 72.6326 160.839 73.2417C161.141 73.8507 161.292 74.5733 161.292 75.4096ZM160.363 75.4096C160.363 74.7232 160.248 74.1437 160.018 73.6712C159.791 73.1991 159.483 72.8417 159.093 72.5992C158.706 72.3566 158.272 72.2353 157.792 72.2353C157.312 72.2353 156.878 72.3566 156.488 72.5992C156.101 72.8417 155.792 73.1991 155.563 73.6712C155.336 74.1437 155.222 74.7232 155.222 75.4096C155.222 76.096 155.336 76.6755 155.563 77.1476C155.792 77.6198 156.101 77.9775 156.488 78.22C156.878 78.4626 157.312 78.5839 157.792 78.5839C158.272 78.5839 158.706 78.4626 159.093 78.22C159.483 77.9775 159.791 77.6198 160.018 77.1476C160.248 76.6755 160.363 76.096 160.363 75.4096ZM170.662 79.3735H171.591V71.4454H170.647V77.6859H170.569L166.234 71.4454H165.305V79.3735H166.265V73.1487H166.342L170.662 79.3735ZM176.871 79.3735H175.91V71.4454H176.871V79.3735ZM183.702 74.7436L181.658 71.4454H180.528L183.083 75.4096L180.528 79.3735H181.658L183.702 76.1373H183.764L185.808 79.3735H186.939L184.446 75.4096L186.939 71.4454H185.808L183.764 74.7436H183.702Z" fill="#017DF9"/>
</g>
<defs>
<clipPath id="clip0_0_1">
<rect width="293.333" height="292" fill="white" transform="translate(-49.3335 -103)"/>
</clipPath>
</defs>
</svg>
